<?xml version="1.0" encoding="utf-8"?>
<!-- Generator: Adobe Illustrator 19.0.0, SVG Export Plug-In . SVG Version: 6.00 Build 0)  -->
<svg version="1.1" id="layer" xmlns="http://www.w3.org/2000/svg" xmlns:xlink="http://www.w3.org/1999/xlink" x="0px" y="0px"
	 viewBox="-153 -46 652 652" style="enable-background:new -153 -46 652 652;" xml:space="preserve">
<style type="text/css">
	.st0{fill:none;stroke:#000000;stroke-width:4.37;}
</style>
<path d="M-126.3,262.2c0.5-1.3,1.4-2.3,2.6-3.1c2.2-0.8,4.6-1.1,7-0.9c5.5,1.8,10.6,4.8,14.9,8.7c5,4.2,9.7,8.7,14,13.5
	c0.9-2.2,3.1-6.1,3.1-6.1c-8.4-6.6-17.3-12.4-26.7-17.5C-117.6,254.8-125.5,253.9-126.3,262.2z M-120.2,252.1c7-2.2,7.9,2.6,9.2,3.9
	l5.2,3.1C-112.8,243-120.2,252.1-120.2,252.1z M-117.2,260.4c16.6,12.2,2.6,17.9,2.6,17.9c2.6,1.3,5.7,0.6,7.4-1.7l1.3-2.6
	c0.3-0.7,0.4-1.4,0.4-2.2c6.1,6.7,11.6,13.9,16.6,21.4c-0.5-2.6-0.8-5.2-0.9-7.9c-5.2-6.1-6.6-8.3-10.1-11.8
	C-109.3,261.7-117.2,260.4-117.2,260.4 M-47.3,259.1c-0.6-2.9-0.7-5.8-0.4-8.7c0.9-2.1,1.7-4.3,2.2-6.6l0.4,0.4l2.6,1.7
	c-1.1-2.4-2-4.9-2.6-7.4c0-0.4,0-0.4-0.4-0.9c-0.5-2.9-1.7-5.6-3.5-7.9c1,2.6,1.5,5.5,1.3,8.3c-0.4,7.4-11.4,16.2-8.7,29.3
	c1.4,5.2,4.5,9.8,8.7,13.1c-1.8-4.5-3.1-9.2-3.9-14c-0.4-3.8,0.3-7.6,2.2-10.9l0.9,0.4L-47.3,259.1z M27,207.6
	c-9.6,1.5-19.1,3.5-28.4,6.1c-9.2,3.1-23.2,8.7-29.3,16.6c-6.1,7.9-0.9,20.1-2.6,28.4c-1.7,8.3-14,16.6-14,16.6s14.4-3.9,19.2-15.3
	c3.9-8.3-0.9-14.4,4.8-27.1S27,207.6,27,207.6z M27.5,208.4c-9.6,3.3-17.3,10.6-21,20.1l7-1.3C13.5,227.2,13.9,217.6,27.5,208.4z
	 M52.4,229.4c-16.3-2.7-33-2-48.9,2.2c-24.5,7.4-21,19.7-21.4,26.7c-0.4,7-6.1,22.7-28,21c9,4,19.5,2.3,26.7-4.4
	c14-11.4,4.4-25.3,15.7-31.9C7.8,236.4,17,231.2,52.4,229.4z M-9.2,264.8c5.8,0.9,11.2,3.7,15.3,7.9c-4.8-3.5-10.7-5.1-16.6-4.4
	C-10.2,267.1-9.8,265.9-9.2,264.8z M32.3,253.9c0,0-23.2,0.4-23.6,20.1C8.2,273.5-4,252.1,32.3,253.9z M50.6,230.7
	c-23.6,4.8-18.4,23.2-18.4,23.2C20.5,230.3,50.6,230.7,50.6,230.7z M-14.5,291.9c3.7-9.8,12.7-16.7,23.2-17.5
	c-17.9-3.5-22.3,5.2-23.2,11.8c-9.2-1.8-18.6-2.9-28-3.1C-32.7,284.3-23.2,287.3-14.5,291.9z M-110.2,341.3c2.6-1.3,5.4-1.9,8.3-1.7
	c2.7-0.1,5.4-0.7,7.9-1.7c-3.8-1.1-7.8-1.9-11.8-2.2C-110.6,336-110.2,341.3-110.2,341.3z M-23.2,329c-0.3-1.9,1-3.6,2.9-3.9
	c0,0,0.1,0,0.1,0c3-0.1,6,0.5,8.7,1.7c-1.8,0.6-3.7,1.1-5.7,1.3C-19.2,327.9-21.3,328.2-23.2,329z M10,343c2.3-1.1,4.9-1.6,7.4-1.3
	c2,0.2,4.1,0.2,6.1,0c-1.7,0-5.2-3.9-9.6-3.1c-2.1-0.1-3.9,1.5-4,3.6C9.9,342.5,10,342.8,10,343z M30.5,253
	c-28.4-6.6-37.1-1.7-37.1-1.7c0.4-0.8,0.7-1.7,0.9-2.6c0.9-1.3,0.9-1.7,0.9-2.2C7.3,246.1,19.3,248.3,30.5,253z M-78.7,235.1
	c-1.8-2-4.3-3.3-7-3.5c-5.2,0-10.1,6.1-14.4,6.1c-2.6,0.1-5.2-0.5-7.4-1.7c1.8,2.3,4.5,3.7,7.4,3.9c6.1,0,10.5-5.7,14.4-5.7
	C-83.3,234.2-81,234.5-78.7,235.1z M-66,241.2c0.6,2.9,0.8,5.8,0.4,8.7c-0.4,9.6-18.8,22.7-18.8,38.5c0.4,5.7,2.9,11,7,14.9
	c-1.8-5.3-2.4-11-1.7-16.6c1.7-11.4,16.2-24.9,15.7-35.8C-63.2,247.4-64.1,244-66,241.2z M-75.2,302.8c-1.5-3.9-1.8-8.2-0.9-12.2
	c1.3-3.9,4.8-7,11.8-8.7c0,0-12.2,11.4-3.1,21c-3.6,3.7-6.6,8-8.7,12.7c-2.6,5.7-7.9,18.4-9.6,21c-2.7,4.3-6.6,7.7-11.4,9.6
	c-7.4,0.4-16.2,1.7-16.6,7.4c-1.1-1.5-1.5-3.4-1.3-5.2c0.4-3.9,6.6-8.3,13.1-7.9c6.8,1.2,13.5-2.7,15.7-9.2
	C-83,321.6-79.4,312.1-75.2,302.8z M-64.7,303.7c0,0-10.1,30.6-28,42.4c4.6-0.9,9.3-1,14-0.4c3.1,1.3,6.6,3.5,3.5,8.7
	c0,0,6.1-3.5,4.8-8.7c-1.3-4.4-7.9-4.4-7.9-4.4s-1.7-0.9-0.9-3.5c0.9-2.6,7.9-11.4,8.7-13.1c0.9-1.7,9.6-14.9,10.1-15.7
	c4.7,0.7,9.3-1.8,11.4-6.1c3.9-7.9-4.4-14.9-4.4-14.9s3.5,8.3-0.4,12.2C-56.8,302.9-60.8,304.2-64.7,303.7z M-56,310.7
	c1.7-0.3,3.3-0.9,4.8-1.7c0,0,1.7,1.7,8.7,1.7h1.3c11.3-1.9,22.3-5.3,32.8-10.1l1.7,2.6c-11.8,3.9-25.8,15.3-43.7,13.1
	c-1.3-0.4-7.4-1.3-8.3-1.7C-58.2,314.2-56,310.7-56,310.7z M-4.9,325.5c-2,3.4-5,6-8.7,7.4c-5.2,0-11.8,1.3-12.2,5.7
	c-0.9-1.1-1.2-2.6-0.9-3.9c0-2.6,3.9-6.1,9.6-5.7c4.8,0.7,9.3-2.6,10.1-7.4c1.3-3.9,0-11.4,1.7-16.2c0,0,2.6,2.2,3.9,3.1l-0.4,1.3
	C-3.6,314.6-2.7,320.7-4.9,325.5z M2.6,310.7c1,0.6,2,1.2,3.1,1.7c-0.8,1.7-1.4,3.4-1.7,5.2c-0.4,1.3-2.2,7-3.1,9.2s0.4,2.6,0.4,2.6
	s4.8,0.4,5.7,3.5c1.3,3.9-3.5,6.6-3.5,6.6c2.2-3.9-0.4-5.7-2.6-6.6c-3.2-0.4-6.5-0.2-9.6,0.4C-1.4,328.6,1.3,313.3,2.6,310.7z
	 M31.4,341.7c0,0,2.2,4.4,0.9,5.7c-4.8,0.4-7.9,0-14.9,0.9c-6.1,0.9-10.5,1.3-10.9,6.6c-1-1.4-1.5-3.1-1.3-4.8
	c0.4-3.5,5.7-7.4,11.8-7c2.8,0.3,5.6,0.1,8.3-0.4c1.7-0.9-2.6-9.6-3.5-11.4c-6.6-13.1-6.6-17.5-6.6-18.4c0,0-18.4-3.5-23.2-16.2
	c14.9,12.2,26.7,12.2,26.7,12.2C22.2,320.2,26.4,331.1,31.4,341.7z M36.2,272.2h5.2c7.9-17,21.8-35,21.8-45.4
	c-0.2-4.2-1.9-8.3-4.8-11.4l-0.9,2.6c-1.7-3.9-3.9-7.6-6.6-10.9c4.1,1.6,8,3.5,11.8,5.7l-2.2,0.4c3.5,3.5,5.3,8.2,5.2,13.1
	c0.4,12.2-13.1,26.7-21,45.4c17.5,2.2,29.7,13.1,29.7,24.9c0,16.6-10.1,22.7-19.2,22.7c-4,0.1-7.9-1-11.4-3.1
	c-4.4-2.2-8.7-7.4-8.7-17.9c-0.2-7.1,1.1-14.1,3.9-20.5c-4.4,0.4-8.3,0.9-11.8,1.3l-4.8,1.3c4.6,2.5,7.9,6.7,9.2,11.8
	c0.8,5.4,0.2,11-1.7,16.2c0.2,8.1,1.8,16.1,4.8,23.6l2.6,6.6c0.6,1.7,1.9,3.1,3.5,3.9c0,0,5.2,0.9,6.6,3.9c1.2,2.1,0.6,4.7-1.3,6.1
	c1.3-4.8-3.1-5.7-5.7-5.7h-0.4c-1.4-0.3-2.9-0.4-4.4-0.4c-0.5-3.4-1.4-6.8-2.6-10.1c0,0-4.4-11.8-5.7-17.5
	c-1.3-4.3-2.3-8.7-3.1-13.1c0,0,12.2-21-15.3-30.2c1.2-0.3,2.3-0.3,3.5,0c2.4-0.9,4.9-1.7,7.4-2.2C24,273.1,29.7,272.7,36.2,272.2z
	 M43.2,277.9c-2.5,7-3.7,14.4-3.5,21.8c0.4,7.4,4.8,17.5,16.6,16.2c5.1-0.5,9.6-3.6,11.8-8.3c1.3-2.9,2.1-6,2.2-9.2
	c-0.2-5.5-2.7-10.6-7-14C57.6,280,50.5,277.6,43.2,277.9 M-80,224.2c0,0-9.6-3.1-15.7,1.7l3.1,5.2c4.3-3.7,10.7-3.2,14.4,1
	c0.5,0.6,1,1.3,1.4,2c-4,4.2-10,6.1-15.7,4.8c2.3,3.3,6.1,5.1,10.1,4.8c7,0,14-7.4,16.2-4.8c0,0-0.9-10.1,11.8-14
	c1.2,1,2.3,2.2,3.1,3.5c2.9-2.9,4.3-6.9,3.9-10.9c0-4.7-2.3-9.1-6.1-11.8c0.5,3.1,0,6.3-1.3,9.2c-1.3,3.2-4.4,5.4-7.9,5.7
	c-1.9,0-3.8-0.3-5.7-0.9C-70.4,219.4-79.6,216.3-80,224.2z M-69.5,223.7c0,0-3.1,5.2-7.4,2.2c0,0,0-3.1,2.6-2.6
	S-72.2,224.2-69.5,223.7z M136.7,236h4.4v28.8H152v3.5h-14.9L136.7,236z M155.5,233.8h3.9v35h-3.9V233.8z M173,273.5
	c-1.3,3.9-2.6,5.7-5.7,5.7c-0.9,0.1-1.8-0.1-2.6-0.4l0.4-3.5c0.7,0.4,1.4,0.5,2.2,0.4c1.3,0,1.7-0.4,2.6-3.1l0.9-3.9l-7.4-24.5h4.4
	l5.2,19.2l4.8-19.2h3.9L173,273.5z M206.6,268.7h-4.4l-4.8-20.1l-4.8,20.1h-4.4l-6.1-23.6h4.4l4.4,19.7l4.4-19.7h4.8l4.8,19.7
	l4.4-19.7h3.9L206.6,268.7z M225,244.7c6.1,0,9.6,4.8,9.6,12.2c0,7.4-3.1,12.2-9.6,12.2c-6.6,0-9.6-4.8-9.6-12.2
	C215.4,249.5,218.4,244.7,225,244.7z M225,265.7c3.9,0,5.2-3.1,5.2-9.2c0-6.1-1.7-9.2-5.2-9.2c-3.5,0-5.2,3.1-5.2,9.2
	C219.8,262.6,221.1,265.7,225,265.7z M256,264.4c0,1.3,0.4,3.1,0.4,4.4h-3.9l-0.4-3.5c-1.1,2.4-3.5,4-6.1,3.9
	c-4.8,0-8.3-3.9-8.3-12.2c0-8.3,3.1-12.2,8.3-12.2c2.5,0.1,4.8,1.4,6.1,3.5v-14.4h3.9V264.4z M246.8,247.8c-3.5,0-5.2,3.1-5.2,9.2
	c0,6.1,1.7,9.2,5.2,9.2c3.5,0,5.2-3.1,5.2-9.2C252.1,250.8,250.3,247.8,246.8,247.8z M261.3,249.9c0-1.7-0.4-3.5-0.4-5.2h3.9
	l0.4,3.9c1.1-2.6,3.7-4.2,6.6-3.9v3.9c-0.4,0-0.9-0.4-1.3-0.4c-3.1,0-5.2,2.6-5.2,7.9v12.7h-3.9V249.9z M276.1,246.5
	c2-1.2,4.2-1.8,6.6-1.7c2.3-0.3,4.5,0.5,6.1,2.2c1.5,1.5,2.3,3.6,2.2,5.7v12.2c-0.1,1.3,0.1,2.7,0.4,3.9h-3.5l-0.4-3.1
	c-1.4,2.2-3.9,3.6-6.6,3.5c-3.3,0.3-6.2-2.1-6.6-5.4c0-0.4,0-0.8,0-1.2c0-4.8,3.1-7.9,11.4-7.9h2.2v-1.3c0-1.4-0.3-2.7-0.9-3.9
	c-0.9-1.3-2.2-1.3-3.9-1.3c-2.3-0.1-4.6,0.9-6.1,2.6L276.1,246.5z M287.5,256.9h-2.6c-4.8,0-6.6,2.2-6.6,4.8c0,2.6,1.3,4.4,3.9,4.4
	c3.1,0,5.7-2.5,5.7-5.6c0-0.2,0-0.4,0-0.5v-3.1H287.5z M299.7,257.8c0,5.7,2.2,8.3,6.6,8.3c1.9,0,3.7-0.7,5.2-1.7l0.4,3.5
	c-2.1,0.9-4.3,1.3-6.6,1.3c-6.1,0-9.6-4.8-9.6-12.2c0-7.4,3.1-12.2,9.2-12.2c5.2,0,8.3,4.4,8.3,11.4v2.2L299.7,257.8z M309.3,255.2
	c0-4.8-1.7-7.4-4.8-7.4c-3.1,0-4.8,1.7-4.8,7.4H309.3z M328.1,268.3c-1,0.5-2,0.8-3.1,0.9c-3.5,0-5.7-1.3-5.7-5.7v-15.3h-3.9v-3.1
	h3.9v-5.2l3.9-1.3v6.1h4.8v3.1h-4.8v14c0,2.6,0.9,3.9,2.6,3.9c0.8,0,1.6-0.3,2.2-0.9V268.3z M331.2,233.8h3.9v14.4
	c1-2.2,3.2-3.6,5.7-3.5c4.4,0,7,2.2,7,7.9v16.6h-3.9v-15.3c0-3.9-1.3-5.2-3.9-5.2c-2.6,0-5.2,2.2-5.2,6.6v14.4h-3.9
	C330.8,269.6,331.2,233.8,331.2,233.8z M384.9,268.3c-1.8,0.7-3.7,1-5.7,0.9c-10.1,0-14.9-7.9-14.9-16.6c0-10.1,5.7-16.6,14.4-16.6
	c2.1-0.1,4.2,0.4,6.1,1.3v3.9c-1.8-1.2-3.9-1.8-6.1-1.7c-5.2,0-10.1,4.4-10.1,12.2c0,7.9,3.1,14,10.5,14c2,0.2,4.1-0.5,5.7-1.7
	V268.3z M397.6,273.5c-1.3,3.9-2.6,5.7-5.7,5.7c-0.9,0.1-1.8-0.1-2.6-0.4l0.4-3.5c0.7,0.4,1.4,0.5,2.2,0.4c1.3,0,1.7-0.4,2.6-3.1
	l0.9-3.9l-7.4-24.5h4.4l5.2,19.2l4.8-19.2h3.9L397.6,273.5z M409,249.9c0-1.7-0.4-3.5-0.4-5.2h3.9l0.4,3.5c1.2-3.1,4.7-4.7,7.8-3.5
	c1.6,0.6,2.9,1.9,3.5,3.5c1-2.3,3.2-3.8,5.7-3.9c4.4,0,7,2.2,7,7.9v16.6H433v-16.2c0-3.1-1.3-4.4-3.9-4.4c-2.6,0-4.4,1.7-4.4,6.1
	v14.9h-3.9V253c0-3.1-1.3-4.4-3.9-4.4c-2.6,0-4.4,1.7-4.4,6.1v14.9h-3.9C408.5,269.6,409,249.9,409,249.9z M442.6,249.9
	c0-1.7-0.4-3.5-0.4-5.2h3.9l0.4,3.9c1.1-2.6,3.7-4.2,6.6-3.9v3.9c-0.4,0-0.9-0.4-1.3-0.4c-3.1,0-5.2,2.6-5.2,7.9v12.7h-3.9V249.9z
	 M473.2,263.5c0,1.7,0.4,3.5,0.4,5.2h-3.9l-0.4-3.5c-1,2.5-3.4,4.1-6.1,3.9c-4.4,0-7-2.2-7-7.9v-16.6h3.9v15.7
	c0,3.9,1.3,5.2,3.9,5.2c2.6,0,5.2-2.2,5.2-6.6v-14.4h3.9L473.2,263.5L473.2,263.5z M133.7,292.3h4.4l5.2,26.2l5.7-26.2h5.2l5.7,26.2
	l5.7-26.2h3.9l-7.4,32.8h-4.8l-6.1-28l-6.1,28h-4.8L133.7,292.3z M175.6,313.7c0,5.7,2.2,8.3,6.6,8.3c2-0.1,4-0.7,5.7-1.7l0.4,3.5
	c-2.1,0.9-4.3,1.3-6.6,1.3c-6.1,0-9.6-4.8-9.6-12.2s3.1-12.2,9.2-12.2c5.2,0,8.3,4.4,8.3,11.4v2.2
	C189.6,314.2,175.6,313.7,175.6,313.7z M185.2,311.1c0-4.8-1.7-7.4-4.8-7.4c-3.1,0-4.8,1.7-4.8,7.4H185.2z M194,289.7h3.9v35H194
	V289.7z M203.1,320.3c1.7,1.2,3.7,1.8,5.7,1.7c3.1,0,4.8-1.7,4.8-3.1s-0.9-2.6-3.1-3.9l-2.6-1.3c-3.5-1.7-4.8-3.1-4.8-6.1
	c0.1-4,3.3-7.1,7.3-7c0.2,0,0.4,0,0.6,0c1.8,0,3.5,0.3,5.2,0.9l-0.4,3.1c-1.3,0-3.1-0.4-4.8-0.4c-2.6,0-3.9,1.3-3.9,3.1
	c0,1.7,1.3,3.1,3.9,3.9l1.3,0.4c3.1,1.3,4.8,3.1,4.8,6.1c0,4.4-2.2,7.4-7.9,7.4c-2.3,0.1-4.5-0.4-6.6-1.3L203.1,320.3z M221.5,289.7
	h3.9v14.4c1-2.2,3.2-3.6,5.7-3.5c4.4,0,7,2.2,7,7.9v16.6h-3.9v-15.3c0-3.9-1.3-5.2-3.9-5.2s-5.2,2.2-5.2,6.6v14.4h-3.9
	C221.1,325.5,221.5,289.7,221.5,289.7z M277.9,323.4c-2.6,1.1-5.4,1.7-8.3,1.7c-10.5,0-14.9-7.9-14.9-16.6
	c0-10.1,6.1-16.6,14.4-16.6c2.7,0,5.3,0.5,7.9,1.3v4.4c-2.4-1.3-5.1-2.1-7.9-2.2c-5.2,0-10.1,4.4-10.1,12.2s3.5,14,10.5,14
	c1.5-0.1,3-0.4,4.4-0.9v-10.1h-5.7v-3.5h9.6C277.9,307.2,277.9,323.4,277.9,323.4z M293.2,300.6c6.1,0,9.6,4.8,9.6,12.2
	s-3.1,12.2-9.6,12.2c-6.6,0-9.6-4.8-9.6-12.2S286.6,300.6,293.2,300.6z M293.2,321.6c3.9,0,5.7-3.1,5.7-9.2c0-6.1-1.7-9.2-5.7-9.2
	c-3.9,0-5.7,3.1-5.7,9.2C287.5,318.6,289.2,321.6,293.2,321.6z M304.5,300.6h4.4l5.2,19.7l5.2-19.7h4.4l-7.4,23.6h-4.8L304.5,300.6z
	 M330.3,313.7c0,5.7,2.2,8.3,6.6,8.3c2-0.1,4-0.7,5.7-1.7l0.4,3.5c-2.1,0.9-4.3,1.3-6.6,1.3c-6.1,0-9.6-4.8-9.6-12.2
	s3.1-12.2,9.2-12.2c5.2,0,8.3,4.4,8.3,11.4v2.2C344.3,314.2,330.3,313.7,330.3,313.7z M339.9,311.1c0-4.8-1.7-7.4-4.8-7.4
	s-4.8,1.7-4.8,7.4H339.9z M348.2,305.9c0-1.7-0.4-3.5-0.4-5.2h3.9l0.4,3.9c1.1-2.6,3.7-4.2,6.6-3.9v3.9c-0.4,0-0.9-0.4-1.3-0.4
	c-3.1,0-5.2,2.6-5.2,7.9v12.7h-3.9V305.9z M362.2,305.9c0-1.7-0.4-3.5-0.4-5.2h3.9l0.4,3.5c1-2.5,3.4-4.1,6.1-3.9c4.4,0,7,2.2,7,7.9
	v16.6h-3.9v-15.3c0-3.9-1.3-5.2-3.9-5.2c-2.6,0-5.2,2.2-5.2,6.6v14.4h-3.9V305.9z M384.9,305.9c0-1.7-0.4-3.5-0.4-5.2h3.9l0.4,3.5
	c1.2-3.1,4.7-4.7,7.8-3.5c1.6,0.6,2.9,1.9,3.5,3.5c1-2.3,3.2-3.8,5.7-3.9c4.4,0,7,2.2,7,7.9v16.6H409v-16.2c0-3.1-1.3-4.4-3.9-4.4
	c-2.6,0-4.4,1.7-4.4,6.1v14.9h-3.9v-16.2c0-3.1-1.3-4.4-3.9-4.4c-2.6,0-4.4,1.7-4.4,6.1v14.9h-3.9
	C384.5,325.5,384.9,305.9,384.9,305.9z M421.6,313.7c0,5.7,2.2,8.3,6.6,8.3c2-0.1,4-0.7,5.7-1.7l0.4,3.5c-2.1,0.9-4.3,1.3-6.6,1.3
	c-6.1,0-9.6-4.8-9.6-12.2s3.1-12.2,9.2-12.2c5.2,0,8.3,4.4,8.3,11.4v2.2C435.6,314.2,421.6,313.7,421.6,313.7z M431.7,311.1
	c0-4.8-1.7-7.4-4.8-7.4c-3.1,0-4.8,1.7-4.8,7.4H431.7z M439.6,305.9c0-1.7-0.4-3.5-0.4-5.2h3.9l0.4,3.5c1-2.5,3.4-4.1,6.1-3.9
	c4.4,0,7,2.2,7,7.9v16.6h-3.9v-15.3c0-3.9-1.3-5.2-3.9-5.2s-5.2,2.2-5.2,6.6v14.4h-3.9L439.6,305.9L439.6,305.9z M473.2,324.2
	c-1,0.5-2,0.8-3.1,0.9c-3.9,0-5.7-1.3-5.7-5.7v-15.3h-3.9v-3.1h3.9v-4.8l3.9-1.3v6.1h4.8v3.1H468v14c0,2.6,0.9,3.9,2.6,3.9
	c0.9-0.1,1.8-0.4,2.6-0.9L473.2,324.2L473.2,324.2z"/>
<path class="st0" d="M103.1,205.4v149.5"/>
</svg>
